<?xml version="1.0" standalone="no"?>
<!DOCTYPE svg PUBLIC "-//W3C//DTD SVG 1.1//EN" "http://www.w3.org/Graphics/SVG/1.1/DTD/svg11.dtd" >
<svg xmlns="http://www.w3.org/2000/svg" xmlns:xlink="http://www.w3.org/1999/xlink" version="1.1">
<metadata>
Created by FontForge 20170731 at Thu Oct  4 19:43:49 2018
 By Aleksey,,,
Paladise Script (c) Lettersiro 2018. All Rights Reserved
</metadata>
<defs>
<font id="PaladiseScript" horiz-adv-x="321" >
  <font-face 
    font-family="Paladise Script"
    font-weight="400"
    font-stretch="normal"
    units-per-em="2048"
    panose-1="2 0 5 0 0 0 0 0 0 0"
    ascent="1638"
    descent="-410"
    x-height="891"
    cap-height="1230"
    bbox="-1030 -390 2694 2022"
    underline-thickness="150"
    underline-position="-442"
    unicode-range="U+001D-E214"
  />
<missing-glyph horiz-adv-x="1024" 
d="M521 152h-7q-47 0 -74 13q-30 14 -41 37t-11 48q0 36 25 62q24 26 86 27q60 -1 82 -34q20 -29 20 -65v-7q0 -33 -20 -56q-18 -23 -60 -25zM429 385q-9 53 -9 101q0 74 22 138q36 107 86 192q33 60 53 112q15 36 15 69q0 13 -3 26q-12 47 -49 61q-18 7 -36 7q-20 0 -41 -8
q-41 -16 -63 -63q-12 -25 -12 -60q0 -27 8 -61h-165q-6 35 -6 68q0 63 21 119q32 86 115 137q82 52 218 52q103 -2 153 -44q51 -43 61 -110q2 -20 2 -41q0 -50 -15 -106q-15 -51 -44 -108t-63 -116q-56 -96 -96 -188q-28 -66 -28 -123q0 -23 4 -45zM150 50q372 29 724 0
v1334q-365 -7 -724 0v-1334zM100 0v1434h824v-1434h-824z" />
    <glyph glyph-name="b.ss01" unicode="b&#x34;" horiz-adv-x="887" 
d="M440 264q39 0 62 41q23 42 29 101q3 26 3 51q0 34 -5 68q-8 60 -32 100q-24 41 -63 41q-51 0 -74 -44q-22 -44 -26 -114l-1 -42q0 -55 10 -102q11 -45 34 -72q24 -28 63 -28zM494 1454q497 -324 680 -324q0 -4 52 -4h40q208 0 268 148q12 27 20 104q0 260 -272 396
q-77 28 -144 28h-32q-249 0 -508 -216q-103 -103 -108 -132h4zM345 869q69 41 149 41q99 0 172.5 -58.5t114.5 -157t41 -217.5q0 -123 -42 -221t-116 -154.5t-170 -56.5q-94 0 -172 55l-1 -33l-301 -60l-28 844q-14 227 24 383q23 97 74 200q-384 168 -696 168
q-258 0 -316 -140q-8 -28 -8 -48q0 -100 256 -140q75 -8 120 -8q232 0 424 104h4q0 -147 -136 -264q-66 -48 -196 -48q-441 6 -552 276q-20 41 -20 100v24q0 189 256 308q158 60 332 60q285 0 656 -204v4q151 235 544 356q159 40 268 40h56q404 0 596 -312q68 -122 68 -240
v-44q0 -224 -224 -372q-136 -72 -280 -72h-48q-331 0 -808 284q-60 -155 -41 -397z" />
    <glyph glyph-name="d.ss01" unicode="d&#x34;" horiz-adv-x="982" 
d="M382 264q39 0 63 28q24 27 34 72q10 47 10 102q0 56 -9 101t-31 72t-61 27t-62 -41q-24 -40 -33 -100q-5 -34 -5 -68q0 -25 3 -51q6 -59 29 -101q23 -41 62 -41zM984 1454q497 -324 680 -324q0 -4 52 -4h40q208 0 268 148q12 27 20 104q0 260 -272 396q-77 28 -144 28
h-32q-249 0 -508 -216q-103 -103 -108 -132h4zM822 938q-10 -158 -18 -316q-4 -75 -4 -142q0 -73 5 -136q7 -69 46 -69h3q41 1 87 58t67 153q5 10 12 10l4 -1q9 -2 14 -14q9 -32 9 -70q0 -69 -32 -156q-50 -134 -140 -203q-60 -42 -126 -53q-19 -3 -38 -3q-45 0 -85 21
q-57 29 -90 112q-91 -84 -208 -84q-97 0 -171 58q-73 58 -115 157t-42 217q0 120 42 218t115 157q74 58 171 58q83 0 152 -43v47q-1 168 19 284q21 113 81 236q-384 168 -696 168q-258 0 -316 -140q-8 -28 -8 -48q0 -100 256 -140q75 -8 120 -8q232 0 424 104h4
q0 -147 -136 -264q-66 -48 -196 -48q-441 6 -552 276q-20 41 -20 100v24q0 189 256 308q158 60 332 60q285 0 656 -204v4q151 235 544 356q159 40 268 40h56q404 0 596 -312q68 -122 68 -240v-44q0 -224 -224 -372q-136 -72 -280 -72h-48q-331 0 -808 284
q-27 -67 -37.5 -152.5t-16.5 -175.5z" />
    <glyph glyph-name="h.ss01" unicode="h&#x34;" horiz-adv-x="1007" 
d="M524 1454q497 -324 680 -324q0 -4 52 -4h40q208 0 268 148q12 27 20 104q0 260 -272 396q-77 28 -144 28h-32q-249 0 -508 -216q-103 -103 -108 -132h4zM362 809q63 81 177 82q117 -12 178 -82q63 -69 86 -171q24 -100 27 -204v-29l-1 -27q0 -28 5 -58q7 -42 43 -45
q42 0 88 58q46 57 67 153q6 10 13 10l3 -1q11 -2 15 -14q9 -32 9 -69q0 -70 -33 -157q-50 -134 -140 -203q-74 -51 -155 -56l-13 -1q-72 0 -126 58q-60 63 -70 212l-1 29l-5 86q-3 49 -10 97q-8 48 -20 81q-13 32 -34 32q-28 0 -50 -34t-36 -87q-14 -52 -23 -109
q-8 -57 -11 -105l-5 -188l-323 -64l-25 762q-6 245 35.5 405.5t92.5 263.5q-384 168 -696 168q-258 0 -316 -140q-8 -28 -8 -48q0 -100 256 -140q75 -8 120 -8q232 0 424 104h4q0 -147 -136 -264q-66 -48 -196 -48q-441 6 -552 276q-20 41 -20 100v24q0 189 256 308
q158 60 332 60q285 0 656 -204v4q151 235 544 356q159 40 268 40h56q404 0 596 -312q68 -122 68 -240v-44q0 -224 -224 -372q-136 -72 -280 -72h-48q-331 0 -808 284q-47 -99 -54 -457z" />
    <glyph glyph-name="k.ss01" unicode="k&#x34;" horiz-adv-x="890" 
d="M514 1454q497 -324 680 -324q0 -4 52 -4h40q208 0 268 148q12 27 20 104q0 260 -272 396q-77 28 -144 28h-32q-249 0 -508 -216q-103 -103 -108 -132h4zM361 763q74 76 177 104q104 29 200 29l4 -328q-186 -13 -265 -42q-79 -28 -80 -64q0 -64 78 -110q78 -44 182 -49
l21 -1q92 0 161 49q61 45 80 135q5 10 12 10l4 -1q9 -2 14 -14q6 -19 6 -46v-11q-1 -35 -6 -59q-23 -124 -83 -202q-105 -137 -229 -137h-3q-126 0 -238 98q-26 23 -53 53l-3 -110l-323 -64l-27 822q-7 393 120 609q-384 168 -696 168q-258 0 -316 -140q-8 -28 -8 -48
q0 -100 256 -140q75 -8 120 -8q232 0 424 104h4q0 -147 -136 -264q-66 -48 -196 -48q-441 6 -552 276q-20 41 -20 100v24q0 189 256 308q158 60 332 60q285 0 656 -204v4q151 235 544 356q159 40 268 40h56q404 0 596 -312q68 -122 68 -240v-44q0 -224 -224 -372
q-136 -72 -280 -72h-48q-331 0 -808 284q-53 -155 -45 -503z" />
    <glyph glyph-name="l.ss01" unicode="l&#x34;" horiz-adv-x="497" 
d="M517 1454q497 -324 680 -324q0 -4 52 -4h40q208 0 268 148q12 27 20 104q0 260 -272 396q-77 28 -144 28h-32q-249 0 -508 -216q-103 -103 -108 -132h4zM347 918q-15 -157 -25 -310q-6 -92 -6 -170q0 -50 3 -94q7 -69 46 -69h3q42 1 88 58q45 57 66 153q6 10 13 10l3 -1
q11 -2 15 -14q9 -32 9 -69q0 -70 -33 -157q-50 -134 -140 -203q-64 -45 -135 -55l-27 -2q-55 0 -102 31q-59 39 -86 140q-28 129 -39 353q-10 224 -1.5 378.5t34 290t80.5 246.5q-384 168 -696 168q-258 0 -316 -140q-8 -28 -8 -48q0 -100 256 -140q75 -8 120 -8
q232 0 424 104h4q0 -147 -136 -264q-66 -48 -196 -48q-441 6 -552 276q-20 41 -20 100v24q0 189 256 308q158 60 332 60q285 0 656 -204v4q151 235 544 356q159 40 268 40h56q404 0 596 -312q68 -122 68 -240v-44q0 -224 -224 -372q-136 -72 -280 -72h-48q-331 0 -808 284
q-44 -124 -62 -348z" />
    <glyph glyph-name="v.ss01" unicode="v&#x34;" horiz-adv-x="884" 
d="M993 1452q511 -324 699 -324q0 -4 54 -4h41q214 0 275 148q13 27 21 104q0 260 -280 396q-79 28 -148 28h-33q-255 0 -522 -216q-106 -103 -111 -132h4zM807 807q-9 -163 -39 -291q-32 -131 -87 -248q-54 -117 -128 -190q-74 -72 -164 -74q-121 4 -207 101
q-85 97 -137 241q-52 145 -72 292q-13 100 -13 181q0 39 3 74l328 -3q-11 -36 -11 -100l1 -45q4 -98 20 -193q37 -203 78 -213h4q40 0 79 203q19 102 27 190.5t25 290t121 382.5q-430 195 -742 195q-258 0 -316 -140q-8 -28 -8 -48q0 -100 256 -140q75 -8 120 -8
q232 0 424 104h4q0 -147 -136 -264q-66 -48 -196 -48q-441 6 -552 276q-20 41 -20 100v24q0 189 256 308q158 60 332 60q285 0 680 -214q240 283 520 370q159 40 268 40h56q404 0 596 -312q68 -122 68 -240v-44q0 -224 -224 -372q-136 -72 -280 -72h-48q-331 0 -808 284
q-63 -170 -78 -457z" />
    <glyph glyph-name="w.ss01" unicode="w&#x34;" horiz-adv-x="1323" 
d="M1442 1452q516 -324 706 -324q0 -4 54 -4h42q216 0 278 148q13 27 21 104q0 260 -282 396q-81 28 -150 28h-33q-258 0 -528 -216q-107 -103 -112 -132h4zM1232 739v-10q-7 -39 -13 -82q-7 -46 -16 -96q-26 -135 -79 -260q-52 -123 -133 -204q-79 -80 -189 -83
q-64 0 -114 40q-48 41 -82 110q-33 -69 -82 -109q-48 -39 -114 -41q-147 0 -236 97q-90 96 -135 242q-43 146 -55 294q-5 72 -5 134q0 67 6 122l327 -3q-10 -38 -10 -109v-36q5 -98 21 -193q36 -203 78 -213h4q40 0 79 203q19 104 19 179q0 64 -14 107l223 25l1 -40l-2 -76
q0 -88 17 -195q39 -203 79 -203h4q42 10 79 213q7 45 12 85q29 192 35 263q2 19 4 39q6 52 20.5 174.5t105.5 299.5q-413 187 -725 187q-258 0 -316 -140q-8 -28 -8 -48q0 -100 256 -140q75 -8 120 -8q232 0 424 104h4q0 -147 -136 -264q-66 -48 -196 -48q-441 6 -552 276
q-20 41 -20 100v24q0 189 256 308q158 60 332 60q285 0 685 -215q168 262 515 371q159 40 268 40h56q404 0 596 -312q68 -122 68 -240v-44q0 -224 -224 -372q-136 -72 -280 -72h-48q-331 0 -808 284q-36 -89 -54.5 -192t-29 -195t-18.5 -138z" />
    <glyph glyph-name="ll" unicode="ll" horiz-adv-x="1025" 
d="M755 -5q-55 0 -102 31q-59 39 -86 140q-20 82 -29 214q-39 -136 -98 -240q-60 -105 -140 -133q-36 -12 -70 -12q-44 0 -85 20q-73 34 -105 151q-28 129 -39 351q-10 222 -13 437q-3 151 -7 256l391 19q-7 -138 -24 -317q-15 -156 -25 -306q-6 -88 -6 -162q0 -54 3 -100
q6 -53 29 -53q9 0 21 8q41 27 86 167q45 139 61 400q0 57 -2 110q-1 156 -6 263l391 19q-7 -137 -24 -320q-15 -163 -25 -322q-6 -98 -6 -178q0 -51 2 -94q8 -69 46 -69h3q42 1 88 58t67 153q5 10 12 10l4 -1q9 -2 14 -14q9 -32 9 -70q0 -69 -32 -156q-50 -134 -140 -203
q-64 -45 -136 -55z" />
    <glyph glyph-name="oo" unicode="oo" horiz-adv-x="1628" 
d="M1138 26h-5q-99 0 -173 59q-73 59 -114 158q-39 99 -39 222q2 36 6 70q-40 -33 -92 -37l-13 -1q-45 0 -95 27q12 -15 29 -25q17 -9 32 -15l16 -7q1 0 1 -1q6 -3 6 -6q-1 -115 -43 -217q-42 -103 -124 -166q-80 -61 -194 -61h-11q-99 0 -172 59q-75 59 -115 158
q-38 95 -38 213v9q3 122 46 221q44 99 119 158q76 60 175 60q148 -7 235 -98q15 -15 28 -31q1 -2 2 -3q33 -40 76 -69q34 -23 75 -23q10 0 21 1q52 8 115 75q0 1 1 2v0.5t1 0.5q45 67 110 106t144 39q162 -7 249 -114q88 -105 104 -254q42 1 86 31q45 30 64 114q6 10 13 10
l3 -1q11 -2 15 -14q11 -28 11 -62q0 -22 -4 -45q-36 -138 -112 -183q-50 -30 -105 -30q-30 0 -61 9q-89 24 -158 98q-70 72 -93 173q-24 -20 -40 -64q-15 -45 -19 -99l-2 -41q0 -33 5 -65q8 -51 30 -85q21 -33 57 -33q45 0 72 42q28 41 38 102q80 -56 164 -56l24 1
q-30 -135 -120 -224q-88 -88 -231 -88zM383 249q39 0 64 31q27 32 39 80q13 49 14 103q0 54 -13 100q-70 31 -126 82q-36 -27 -54 -90q-16 -57 -16 -121v-12q3 -71 25 -122q24 -51 67 -51z" />
    <glyph glyph-name="tt" unicode="tt" horiz-adv-x="1025" 
d="M755 -5q-55 0 -102 31q-58 39 -86 140q-18 82 -29 214q-38 -136 -98 -240q-60 -105 -140 -133q-36 -12 -70 -12q-44 0 -85 20q-72 34 -105 151q-24 107 -35 284t-14 366l-93 -2l-4 253l92 -3q-1 50 -2 93q-1 28 -2 53l390 19q-3 -80 -12 -179l154 -6q-2 114 -5 195
l391 19q-5 -99 -16 -228l120 -4l-8 -182l-128 -3q-23 -233 -23 -409l2 -88q8 -69 47 -69h3q41 1 87 58t67 153q5 10 12 10l4 -1q9 -2 14 -14q9 -32 9 -70q0 -69 -32 -156q-50 -134 -140 -203q-64 -45 -136 -55zM349 291q9 0 19 6q41 25 84 157q45 131 63 377l-175 -5
q-22 -215 -22 -384q0 -51 2 -98q6 -53 29 -53z" />
    <glyph glyph-name=".notdef" horiz-adv-x="1024" 
d="M521 152h-7q-47 0 -74 13q-30 14 -41 37t-11 48q0 36 25 62q24 26 86 27q60 -1 82 -34q20 -29 20 -65v-7q0 -33 -20 -56q-18 -23 -60 -25zM429 385q-9 53 -9 101q0 74 22 138q36 107 86 192q33 60 53 112q15 36 15 69q0 13 -3 26q-12 47 -49 61q-18 7 -36 7q-20 0 -41 -8
q-41 -16 -63 -63q-12 -25 -12 -60q0 -27 8 -61h-165q-6 35 -6 68q0 63 21 119q32 86 115 137q82 52 218 52q103 -2 153 -44q51 -43 61 -110q2 -20 2 -41q0 -50 -15 -106q-15 -51 -44 -108t-63 -116q-56 -96 -96 -188q-28 -66 -28 -123q0 -23 4 -45zM150 50q372 29 724 0
v1334q-365 -7 -724 0v-1334zM100 0v1434h824v-1434h-824z" />
    <glyph glyph-name=".null" horiz-adv-x="0" 
 />
    <glyph glyph-name=".null" horiz-adv-x="0" 
 />
    <glyph glyph-name="nonmarkingreturn" horiz-adv-x="508" 
 />
    <glyph glyph-name="space" unicode=" " horiz-adv-x="607" 
 />
    <glyph glyph-name="space" unicode="&#xa0;" horiz-adv-x="607" 
 />
    <glyph glyph-name="exclam" unicode="!" horiz-adv-x="417" 
d="M262 203h-187l-74 1160l351 4zM205 -116h-10q-74 0 -115 20q-45 22 -63 58q-17 36 -17 73q0 38 16 68q15 31 53 49q37 18 100 20q94 -3 127 -52q32 -48 32 -106v-6q-1 -51 -30 -85q-30 -36 -93 -39z" />
    <glyph glyph-name="quotedbl" unicode="&#x22;" horiz-adv-x="527" 
d="M97 727q-15 0 -14 5v2q4 8 17 21q17 17 31 38q9 14 9 29q0 8 -3 17l-17 -2q-30 0 -48 21q-22 27 -22 66q0 41 26 69q27 29 75 30q61 -2 85 -46q17 -32 17 -69q0 -16 -3 -33q-10 -58 -49 -102q-40 -44 -104 -46zM321 727q-14 0 -13 5v2q3 8 17 21q17 17 30 38q10 15 10 30
q0 8 -3 16l-17 -2q-31 0 -48 21q-23 27 -23 66q0 41 27 69q26 29 74 30q62 -2 86 -46q16 -32 16 -69q0 -16 -3 -33q-9 -58 -49 -102q-39 -44 -104 -46z" />
    <glyph glyph-name="numbersign" unicode="#" horiz-adv-x="878" 
d="M343 120l61 151h-163l-69 -149l-148 -2l62 151h-86l32 134l108 -1l35 86h-118l34 129l136 1l65 158l179 -5l-70 -152l145 1l64 156l179 -5l-69 -150l93 1l-43 -135l-111 1l-41 -89l132 -1l-37 -129h-154l-69 -149zM457 402l36 88h-152l-40 -87z" />
    <glyph glyph-name="dollar" unicode="$" horiz-adv-x="763" 
d="M435 -36h-181l-3 103q-123 24 -190 111q-50 64 -50 158q0 32 6 68l221 35q0 -103 31 -147q30 -42 70 -42h3q41 1 71 31q26 25 26 58l-1 10q-13 65 -68 108q-53 45 -125 85q-84 45 -155 108q-71 62 -88 162q-2 18 -2 35q0 82 47 153q57 85 146 124q4 2 9 3q25 9 49 16
l-4 134l188 -1v-119q84 -12 149 -63q80 -64 105 -159q9 -31 9 -62q0 -61 -35 -119l-246 20q33 57 33 97q0 13 -4 25q-15 46 -60 59q-15 4 -30 4q-30 0 -59 -17q-44 -24 -56 -90v-7q0 -35 41 -68q45 -37 114 -77q89 -51 171 -118q82 -68 109 -166q8 -39 8 -74q0 -88 -52 -153
q-72 -90 -197 -119v-106z" />
    <glyph glyph-name="percent" unicode="%" horiz-adv-x="1070" 
d="M151 55l-151 51l794 1171l154 -158zM201 587h-8q-58 0 -101 47t-67 125q-22 73 -22 164v11q2 97 27 175t70 125q44 47 102 47h4q98 0 153 -69q58 -69 74 -175q7 -44 7 -89q0 -60 -13 -121q-22 -105 -82 -174q-57 -66 -144 -66zM227 730q33 0 49 62q18 63 19 143
q0 80 -14 143q-14 62 -47 62q-28 0 -44 -62q-15 -63 -17 -143v-16q0 -71 12 -127q14 -62 42 -62zM769 56h-11q-57 0 -101 46q-43 48 -66 125q-23 79 -23 175q2 97 27 175t70 125t102 47h4q98 0 154 -68q57 -70 73 -175q7 -45 7 -90q0 -61 -13 -121q-22 -105 -81 -174
q-56 -65 -142 -65zM792 198q33 0 50 63q17 62 18 142v13q0 73 -14 130q-14 62 -46 62q-28 0 -44 -62t-17 -143v-19q0 -68 11 -123q14 -63 42 -63z" />
    <glyph glyph-name="ampersand" unicode="&#x26;" horiz-adv-x="1142" 
d="M258 51h-17q-122 3 -191 71q-50 49 -50 143q0 38 8 83q20 86 84 173q64 88 148 172q-41 35 -77 100q-34 65 -48 126q-5 27 -5 52q0 63 30 117q42 75 119 122q78 47 169 51h14q129 0 188 -56q62 -58 62 -153q-1 -94 -52 -198q-50 -103 -137 -189q87 -118 195 -215
q103 106 145 266l156 -49q-6 -86 -40 -176q-33 -91 -94 -162l6.5 -8.5t19 -18t31 -14.5t42.5 0.5t53 28.5l7.5 -21t13 -52.5t1.5 -64.5t-26.5 -58.5t-70.5 -33.5q-30 -3 -58 7q-3 0 -5 1q-94 26 -175 91q-87 -58 -214 -99q-118 -36 -232 -36zM392 844q26 24 63 71
q36 45 43 89l1 7q-3 59 -41.5 60.5t-78.5 -40.5q-14 -16 -20 -38.5t-6 -48.5v-4q0 -50 39 -96zM325 249q74 0 208 72q-95 91 -176 197q-105 -114 -114 -187l-1 -15q0 -58 67 -66z" />
    <glyph glyph-name="quotesingle" unicode="'" horiz-adv-x="303" 
d="M97 727q-15 0 -14 5v2q4 8 17 21q17 17 31 38q9 14 9 29q0 8 -3 17l-17 -2q-30 0 -48 21q-22 27 -22 66q0 41 26 69q27 29 75 30q61 -2 85 -46q17 -32 17 -69q0 -16 -3 -33q-10 -58 -49 -102q-40 -44 -104 -46z" />
    <glyph glyph-name="parenleft" unicode="(" horiz-adv-x="485" 
d="M274 -183q-135 134 -204 357q-69 224 -70 477q0 252 68 475q69 222 208 354l144 -158q-105 -100 -162 -285q-57 -186 -64 -400l-1 -59q0 -182 40 -346q46 -191 149 -302z" />
    <glyph glyph-name="parenright" unicode=")" horiz-adv-x="485" 
d="M146 -183l-108 113q103 111 149 302q40 164 40 346l-1 59q-6 214 -64 400q-57 185 -162 285l144 158q139 -132 208 -354q68 -223 68 -475q-1 -253 -70 -477q-69 -223 -204 -357z" />
    <glyph glyph-name="asterisk" unicode="*" horiz-adv-x="444" 
d="M178 689l-4 95l-90 -40l-34 91l90 39l-68 76l77 61l64 -76l53 88l81 -55l-53 -84l100 -24l-29 -93l-96 25l7 -102z" />
    <glyph glyph-name="plus" unicode="+" horiz-adv-x="662" 
d="M247 97l-2 191h-194l-1 175l193 2l-3 195l182 -5v-188l190 2l-4 -182l-186 1l-1 -190z" />
    <glyph glyph-name="comma" unicode="," horiz-adv-x="304" 
d="M97 -82q-14 0 -13 6v2q3 8 17 20q16 17 31 38q9 14 9 29q0 8 -3 17l-17 -2q-30 0 -48 21q-23 27 -23 67q0 39 27 68q26 30 74 30q62 -2 86 -46q17 -31 17 -69q0 -16 -3 -33q-11 -58 -50 -102t-104 -46z" />
    <glyph glyph-name="hyphen" unicode="-" horiz-adv-x="662" 
d="M608 287l-557 1l-1 175l562 6z" />
    <glyph glyph-name="hyphen" unicode="&#xad;" horiz-adv-x="662" 
d="M608 287l-557 1l-1 175l562 6z" />
    <glyph glyph-name="period" unicode="." 
d="M189 -16h-9q-48 0 -76 16q-30 16 -42 44t-12 56q0 44 26 74t89 31q63 -1 85 -39q21 -37 21 -81v-6q0 -37 -20 -65t-62 -30z" />
    <glyph glyph-name="slash" unicode="/" horiz-adv-x="823" 
d="M176 -227l-176 58l553 1677l205 -67z" />
    <glyph glyph-name="zero" unicode="0" horiz-adv-x="848" 
d="M337 38h-12q-99 0 -172 80q-75 81 -114 214q-39 129 -39 288v12q3 165 46 299q44 135 120 214q75 80 174 80h8q167 0 262 -116q99 -120 126 -300q12 -76 12 -152q0 -105 -22 -209q-39 -180 -140 -297q-97 -113 -249 -113zM384 282q44 0 72 72q27 72 38 176q6 63 6 126
q0 41 -3 81q-8 105 -32 176q-26 72 -68 72q-39 0 -64 -72q-26 -71 -35 -176q-6 -64 -6 -127q0 -40 2 -80q5 -104 28 -176q22 -72 62 -72z" />
    <glyph glyph-name="one" unicode="1" horiz-adv-x="626" 
d="M201 47l-40 916l-161 -4l150 252l376 -1l-45 -1104z" />
    <glyph glyph-name="two" unicode="2" horiz-adv-x="907" 
d="M810 64l-760 22l-19 196q77 48 172 119q96 72 176 157q81 86 116 174q16 39 16 77q0 46 -23 89q-19 30 -60 30l-21 -2q-58 -10 -124 -67t-114 -165l-169 296q63 120 169 182q106 63 223 80q56 8 107 8q55 0 103 -10q176 -42 227 -163q28 -65 28 -140q0 -64 -21 -135
q-45 -153 -156 -292q-112 -139 -262 -214l368 67z" />
    <glyph glyph-name="three" unicode="3" horiz-adv-x="935" 
d="M391 23h-10q-123 0 -226 69q-107 73 -155 260l225 66q3 -2 9 -26q7 -30 23 -73q15 -42 42 -73q24 -28 59 -28l10 1q56 12 96 74q42 62 47 135v11q0 65 -49 106q-35 30 -106 30q-36 0 -82 -8l-38 151q30 -5 57 -5q48 0 85 18q59 30 87 80q30 50 31 101q-2 99 -61 137
q-29 19 -58 19q-30 0 -59 -20q-53 -37 -53 -155v-19l-242 90q-2 22 -2 43q0 103 48 165q57 75 150 104q81 25 164 25l27 -1q105 -4 198 -47q93 -42 148 -124q48 -72 48 -174l-1 -28q-6 -66 -43 -130q-36 -64 -91 -102q71 -48 114 -105q44 -57 51 -142l1 -32
q0 -153 -106 -265q-117 -123 -338 -128z" />
    <glyph glyph-name="four" unicode="4" horiz-adv-x="921" 
d="M461 16l-10 435l-451 -31l216 795l159 -157l-102 -397l172 15l-13 565l401 19l-40 -553l60 5l-24 -234l-53 -4l-29 -394z" />
    <glyph glyph-name="five" unicode="5" horiz-adv-x="930" 
d="M395 15q-21 0 -43 2q-103 10 -196 70q-93 61 -156 181l142 249q49 -108 115 -160q67 -53 125 -56h11q50 0 70 34q35 66 35 124q0 26 -7 51q-22 78 -93 129q-70 50 -165 62q-21 2 -43 2q-71 0 -142 -28l24 535l758 53l-38 -373l-467 91l-14 -109h6q173 0 301 -94
q130 -96 181 -238q25 -68 25 -135q0 -73 -30 -145q-57 -137 -252 -218q-69 -27 -147 -27z" />
    <glyph glyph-name="six" unicode="6" horiz-adv-x="804" 
d="M338 14h-5q-103 0 -176 63q-72 63 -112 167q-39 103 -44 228l-1 31q0 111 29 223q32 128 102 239q71 112 182 188q111 75 264 96l88 -268q-88 -6 -147 -37q-58 -31 -94 -61q125 -31 192 -128q69 -97 84 -223q4 -37 4 -73q0 -88 -26 -173q-36 -119 -123 -197
q-85 -75 -217 -75zM391 237q45 0 72 42q28 42 38 102q6 35 6 70q0 25 -3 51q-6 60 -32 102q-24 41 -68 41q-39 0 -64 -41q-24 -42 -35 -102q-6 -40 -6 -78q0 -22 2 -43q6 -60 28 -102q23 -42 62 -42z" />
    <glyph glyph-name="seven" unicode="7" horiz-adv-x="831" 
d="M82 42l289 941l-371 -19l42 247l788 38l-432 -1187z" />
    <glyph glyph-name="eight" unicode="8" horiz-adv-x="837" 
d="M340 6h-6q-102 0 -177 53q-76 54 -117 142q-40 86 -40 192v8q8 204 142 320q-84 88 -84 223q3 87 42 156t106 111q68 42 156 42q169 -7 247 -105q72 -88 72 -198l-1 -22q-7 -125 -99 -212q106 -79 139 -199q17 -60 17 -120q0 -58 -16 -117q-34 -119 -132 -197
q-96 -77 -249 -77zM396 252q47 0 74 33q29 33 39 80q5 27 5 54q0 21 -3 41q-7 48 -33 81q-26 32 -71 32q-39 0 -65 -32q-26 -33 -35 -81q-6 -29 -6 -58q0 -18 2 -37q6 -47 30 -80q23 -33 63 -33zM401 793q54 4 74 67q11 36 11 72q0 28 -7 56q-15 64 -68 70q-58 -5 -80 -68
q-13 -36 -13 -73q0 -28 7 -55q18 -63 76 -69z" />
    <glyph glyph-name="nine" unicode="9" horiz-adv-x="770" 
d="M127 14l-88 269q89 6 147 37q59 31 94 60q-123 32 -192 128q-69 97 -84 223q-4 37 -4 74q0 88 26 172q37 120 123 197q85 75 218 75h5q102 0 175 -63t112 -166t44 -229l1 -32q0 -110 -28 -221q-33 -129 -103 -240q-71 -111 -182 -187t-264 -97zM379 618q39 0 64 42
q25 41 35 102q6 37 6 74q0 23 -2 46q-6 61 -28 102q-21 42 -62 42q-43 0 -72 -42q-27 -41 -38 -102q-6 -35 -6 -70q0 -25 3 -50q7 -61 32 -102q25 -42 68 -42z" />
    <glyph glyph-name="colon" unicode=":" 
d="M188 -2h-8q-48 0 -76 16q-30 17 -42 44t-12 57q0 44 26 73q25 30 89 32q62 -1 85 -40q21 -35 21 -81v-6q0 -37 -20 -65q-19 -27 -63 -30zM188 504h-9q-47 0 -75 15q-30 17 -42 44q-12 29 -12 57q0 44 26 73q25 30 89 32q62 -1 85 -40q21 -36 21 -80v-6q0 -39 -20 -66
q-19 -27 -63 -29z" />
    <glyph glyph-name="semicolon" unicode=";" 
d="M189 504h-9q-48 0 -76 15q-30 17 -42 44q-12 29 -12 57q0 44 26 73q26 30 89 32q63 -1 85 -40q21 -34 21 -75v-11q0 -39 -20 -66t-62 -29zM106 -82q-14 0 -13 6v2q3 8 17 20q16 17 31 38q9 14 9 29q0 8 -3 17l-17 -2q-30 0 -48 21q-23 27 -23 67q0 39 27 68q26 30 74 30
q62 -2 86 -46q17 -31 17 -69q0 -16 -3 -33q-11 -58 -50 -102t-104 -46z" />
    <glyph glyph-name="semicolon" unicode="&#x37e;" 
d="M189 504h-9q-48 0 -76 15q-30 17 -42 44q-12 29 -12 57q0 44 26 73q26 30 89 32q63 -1 85 -40q21 -34 21 -75v-11q0 -39 -20 -66t-62 -29zM106 -82q-14 0 -13 6v2q3 8 17 20q16 17 31 38q9 14 9 29q0 8 -3 17l-17 -2q-30 0 -48 21q-23 27 -23 67q0 39 27 68q26 30 74 30
q62 -2 86 -46q17 -31 17 -69q0 -16 -3 -33q-11 -58 -50 -102t-104 -46z" />
    <glyph glyph-name="less" unicode="&#x3c;" horiz-adv-x="477" 
d="M365 137l-315 243l315 249l56 -134l-147 -113l153 -121z" />
    <glyph glyph-name="equal" unicode="=" horiz-adv-x="580" 
d="M526 425l-475 1l-1 143l480 5zM528 183h-474l-4 149l480 -6z" />
    <glyph glyph-name="greater" unicode="&#x3e;" horiz-adv-x="477" 
d="M112 137l-62 124l153 121l-147 113l55 134l316 -249z" />
    <glyph glyph-name="question" unicode="?" horiz-adv-x="801" 
d="M377 -81h-10q-60 0 -95 17q-38 18 -52 48q-15 29 -15 62q0 47 32 80t111 34q78 -1 106 -43q26 -38 26 -85v-9q0 -42 -25 -72q-24 -29 -78 -32zM258 220q-12 68 -12 130q0 96 29 179q47 138 111 248q42 77 69 144q19 47 19 89q0 17 -4 34q-15 60 -63 79q-23 9 -47 9
q-26 0 -53 -11q-52 -21 -81 -81q-16 -33 -16 -77q0 -36 11 -80h-213q-8 46 -8 89q0 81 27 153q42 111 149 177q106 67 281 67q133 -3 198 -57q66 -55 78 -142q3 -26 3 -52q0 -66 -20 -138q-18 -66 -56 -139q-37 -73 -82 -150q-72 -124 -124 -243q-36 -84 -36 -158
q0 -31 6 -59z" />
    <glyph glyph-name="at" unicode="@" horiz-adv-x="1303" 
d="M626 -64q-133 0 -248 53q-114 53 -199 144q-84 90 -132 209q-47 118 -47 250q0 131 47 249q48 119 132 209q85 91 199 145q115 52 248 52q159 0 277 -52q118 -54 196 -145q77 -90 116 -209q38 -118 38 -249q0 -132 -60 -234q-59 -102 -149 -151q-62 -34 -126 -34
q-28 0 -56 6q-94 22 -166 133q-65 -44 -124 -44q-26 0 -50 9q-79 28 -128 112q-49 85 -49 185q0 92 43 174q42 83 115 116q31 14 65 14q48 0 103 -27l-2 49l212 -29l-14 -325v-18q0 -102 31 -142q25 -32 57 -32q12 0 25 5q48 18 85 79q38 63 38 154q0 134 -53 251
q-54 117 -160 187q-103 68 -257 68h-7q-136 0 -245 -71q-107 -71 -170 -186q-61 -115 -61 -249q0 -133 61 -249q63 -115 170 -187q109 -70 245 -70q90 0 167 31q0 -82 -21 -119q-21 -38 -58 -50t-88 -12zM611 426q39 0 58 42q19 43 19 98q0 54 -18 97q-19 43 -54 43
q-34 0 -52 -43q-16 -42 -18 -97v-9q0 -50 15 -89q17 -42 50 -42z" />
    <glyph glyph-name="A" unicode="A" horiz-adv-x="1142" 
d="M34 -146h-22l-4 135q56 3 84 32q30 29 37 93q3 24 4 50l-130 -6l-3 192q68 13 142 22q1 151 14 307q13 155 58 284q47 128 147 199q80 57 212 57q31 0 66 -3q155 -22 242 -165q86 -142 122 -345q35 -203 38 -406l1 -79q0 -154 -10 -269l-327 4q-51 119 -132 165
q-81 47 -189 51q-9 -57 -18 -101q-22 -95 -82 -143q-59 -47 -133 -62q-62 -12 -117 -12zM714 286q-3 130 -15 259q-12 130 -32 223q-21 94 -52 115q-18 10 -33 10q-35 0 -61 -49q-39 -70 -64 -198q-26 -127 -44 -268q181 -12 301 -92z" />
    <glyph glyph-name="B" unicode="B" horiz-adv-x="1429" 
d="M395 -57l-39 986q-97 -18 -129 -99q-19 -52 -19 -108q0 -32 6 -66q18 -93 65 -146q-52 -19 -105 -27l-25 -2q-38 0 -70 19q-42 24 -63 104q-16 68 -16 127q0 21 2 40q12 131 92 221t201 144q121 53 262 72q108 15 197 15q102 0 181 -19q147 -34 220 -108q72 -75 81 -165
l2 -24q0 -45 -21 -93q-27 -63 -97 -129q117 -84 164 -169q45 -81 45 -159v-10q-3 -133 -72 -222q-70 -90 -173 -133q-85 -36 -172 -36l-35 2q-104 8 -179 70l1 -77zM752 729q112 8 149 63q26 38 26 78q0 16 -4 33q-18 60 -73 73q-22 5 -46 5q-36 0 -79 -12l-7 -236
q16 -4 34 -4zM799 130q17 0 36 6q62 19 112 76q51 58 59 126v17q0 76 -37 121q-43 51 -113 66q-35 8 -72 8q-35 0 -72 -7q-11 -25 -14 -106q-2 -35 -2 -71q0 -46 4 -92q6 -82 28 -112q31 -32 71 -32z" />
    <glyph glyph-name="C" unicode="C" horiz-adv-x="1020" 
d="M530 -92q-110 0 -215 48q-133 66 -217 211q-84 146 -97 339q-1 26 -1 51q0 146 43 281q52 160 152 265t235 116l36 1q166 0 278 -75q123 -82 168 -228q21 -69 21 -147q0 -85 -25 -181l-309 -49q46 142 46 235l-1 25q-8 99 -44 139q-30 32 -57 32q-6 0 -13 -2
q-78 -17 -127 -104q-49 -89 -66 -209q-8 -61 -8 -121q0 -57 7 -113q16 -114 65 -181q83 -101 189 -108l19 -1q97 0 190 55q102 59 171 154q41 56 60 143q6 11 13 11l3 -1q10 -3 15 -15q9 -30 9 -67q0 -49 -17 -109q-48 -165 -169 -266q-121 -100 -273 -123q-41 -6 -81 -6z
" />
    <glyph glyph-name="D" unicode="D" horiz-adv-x="1474" 
d="M430 -57l-39 977q-112 -15 -149 -91q-24 -51 -24 -108q0 -29 7 -61q18 -92 71 -150q-42 -7 -78 -7q-111 0 -164 62q-54 63 -54 153q0 27 5 57q22 129 124 243t275 152q139 27 276 27q40 0 79 -2q177 -11 321 -79q144 -69 224 -209q70 -121 70 -304q0 -29 -2 -61
q-15 -196 -107 -313q-91 -116 -230 -175q-138 -58 -297 -81q-158 -22 -308 -30zM736 183q160 19 238 131q77 111 77 253q0 141 -71.5 248t-220.5 127z" />
    <glyph glyph-name="E" unicode="E" horiz-adv-x="958" 
d="M498 -87q-112 0 -217 43q-130 54 -210 161q-71 96 -71 226l1 30q8 89 53 149q47 60 120 110q-57 39 -95 107q-39 68 -45 137l-1 32q0 105 50 180q59 86 156 131t208 49l28 1q87 0 172 -26q98 -31 158 -109q51 -67 51 -178l-2 -41l-255 -95l1 29q0 85 -31 126
q-36 49 -86 49q-51 0 -89 -43t-38 -121q1 -81 64 -140q44 -42 127 -42q32 0 69 6l-2 -4q-9 -26 -15 -45l-12 -42q-4 -17 -11 -41q-4 -12 -8 -26q-33 5 -61 5q-91 0 -134 -52q-39 -47 -39 -107q0 -28 9 -60q42 -100 129 -134q49 -19 102 -19q42 0 86 12q118 32 199 111
q83 81 108 202q6 11 13 11l3 -1q11 -3 15 -15q10 -30 10 -67q0 -49 -17 -109q-55 -186 -174 -280q-118 -93 -261 -107q-29 -3 -58 -3z" />
    <glyph glyph-name="F" unicode="F" horiz-adv-x="1188" 
d="M322 -104q-33 0 -70 1l-4 135q100 12 130 83q26 61 26 129l-43 697q-105 -18 -139 -100q-21 -52 -21 -110q0 -33 7 -67q19 -95 72 -154q-37 -26 -91 -29l-16 -1q-45 0 -86 23q-48 26 -67 89q-20 76 -20 141l2 38q17 168 106 260q87 93 221 132t285 47q103 5 202 5l152 -1
q81 0 150 2l-9 -253l-392 -3l-1 -243l320 21l-9 -254l-323 16l-17 -289q-5 -139 -44 -209q-39 -69 -131 -90q-73 -16 -190 -16z" />
    <glyph glyph-name="G" unicode="G" horiz-adv-x="1092" 
d="M518 -81h-23q-149 0 -252 72q-110 78 -170 217q-60 138 -70 315q-3 44 -3 86q0 124 27 229q36 140 136 229q99 90 282 115q65 9 122 9q183 0 285 -90q132 -117 140 -411l-306 -55v18q0 129 -42 204q-40 69 -83 69l-13 -2q-82 -15 -131 -95q-50 -79 -68 -189
q-8 -56 -8 -111q0 -53 7 -104q16 -106 67 -174q48 -67 131 -67h4q52 3 100 39q49 35 66 93q-15 18 -62 20h-14q-41 0 -84 -14l9 187q61 5 113 5q110 0 177 -21q97 -30 110 -157q3 -24 3 -53q0 -126 -49 -350l-160 43q-100 -49 -241 -57z" />
    <glyph glyph-name="H" unicode="H" horiz-adv-x="1176" 
d="M187 -57l-16 434q-64 -22 -112 -54l-59 243q71 28 162 43l-23 602l337 -8l-7 -573q111 0 212 -4q11 341 36 587l357 -29q-33 -180 -63 -420q-24 -185 -24 -336q0 -44 2 -86q7 -70 47 -70h2q41 3 87 59q46 57 67 153q5 10 12 10l4 -1q9 -2 14 -14q9 -32 9 -70
q0 -69 -32 -156q-50 -134 -140 -203q-64 -45 -136 -55l-27 -2q-55 0 -102 31q-58 39 -85 140q-24 99 -27 257q-70 6 -146 6q-34 0 -69 -1l-5 -426z" />
    <glyph glyph-name="I" unicode="I" horiz-adv-x="625" 
d="M28 -71l12 225l63 -2l-13 830l-88 -5l-2 253l525 -41l-4 -182l-104 -6l-30 -857l71 -3l-7 -181z" />
    <glyph glyph-name="J" unicode="J" horiz-adv-x="861" 
d="M316 -72h-10q-160 3 -306 113l168 257q22 -53 70 -74q33 -15 65 -15q13 0 26 3q43 9 50 48q8 81 8 181q0 80 -5 172q-12 207 -31 375l-113 -7l-2 254l525 -42l-4 -181l-55 -3l-1 -750q-8 -159 -122 -246q-110 -85 -263 -85z" />
    <glyph glyph-name="K" unicode="K" horiz-adv-x="1292" 
d="M326 -104l-69 1l-4 135q93 11 124 72t31 134l-4 260l-44 98l42 41l-5 298q-84 -17 -133 -82q-48 -65 -48 -156v-5q0 -94 62 -198q-29 -7 -58 -7q-52 0 -102 24q-76 37 -102 129q-16 72 -16 135q0 114 53 195q84 126 261 182q164 51 381 51h35l-9 -251l297 292l244 -128
l-450 -459l469 -619l-287 -129l-296 354l-2 -52q0 -18 -8 -71q-8 -54 -32 -112t-71 -90q-48 -28 -128 -36q-56 -6 -131 -6z" />
    <glyph glyph-name="L" unicode="L" horiz-adv-x="1124" 
d="M401 -90l-21 1018q-97 -17 -128 -98q-19 -52 -19 -108q0 -32 6 -66q18 -93 66 -146q-49 -13 -95 -13q-45 0 -86 13q-81 27 -112 145q-12 59 -12 111q0 127 70 220q100 131 292 189q142 42 308 42q58 0 120 -5l-64 -940l323 66l-43 -381z" />
    <glyph glyph-name="M" unicode="M" horiz-adv-x="1703" 
d="M355 -104l-69 1l-4 135q93 11 124 72q31 58 31 128l-11 703q-84 -17 -133 -82q-48 -66 -48 -161q0 -94 63 -198q-34 -7 -65 -7q-81 0 -140 47q-79 64 -99 174q-4 25 -4 51q0 86 47 175q62 115 219 193q155 76 422 76h10l272 -615l273 625l357 -29q-33 -183 -63 -449
q-24 -205 -24 -362q0 -46 2 -89q6 -57 35 -57q7 0 14 3q41 15 87 86t67 168q5 10 12 10l4 -1q9 -2 14 -14q10 -30 10 -71q0 -39 -9 -87q-18 -99 -61 -192q-45 -92 -103 -137q-64 -44 -136 -54q-15 -2 -29 -2q-54 0 -100 31q-58 39 -85 140q-29 130 -29 364v25l-229 -416
l-242 404l-10 -273q0 -18 -8 -71q-8 -54 -32 -112q-23 -58 -71 -90q-48 -28 -128 -36q-56 -6 -131 -6z" />
    <glyph glyph-name="N" unicode="N" horiz-adv-x="1464" 
d="M351 -104l-69 1l-4 135q93 11 124 72t31 134l-11 697q-84 -17 -133 -82q-48 -65 -48 -156v-5q0 -94 62 -198q-26 -2 -49 -2q-155 0 -214 85q-40 57 -40 145q0 62 20 141q53 183 252 264q186 76 444 76h39l281 -578l-9 563l337 -7l-41 -1182l-276 -56l-311 717l-15 -449
q0 -18 -8 -71q-8 -54 -32 -112t-71 -90q-48 -28 -128 -36q-56 -6 -131 -6z" />
    <glyph glyph-name="O" unicode="O" horiz-adv-x="1093" 
d="M480 -47q-99 0 -209 47q-99 48 -145 122q-47 75 -52 157l-2 45q0 73 20 118q27 58 70 82q44 23 89 24h14q35 0 60 -6q27 -8 27 -12v-1q-44 -50 -44 -130q1 -79 36 -142q33 -58 87 -58h6q99 15 157 102q59 86 78 206q12 68 12 134q0 52 -7 103q-16 117 -64 192
q-48 73 -123 73h-6q-54 -7 -91 -67q-38 -59 -47 -134q-3 -21 -3 -41q0 -48 19 -84q22 -39 44 -48q15 -6 35 -6l27 1q-24 -32 -84 -53q-31 -10 -68 -10q-35 0 -74 9q-140 40 -197 125q-45 67 -45 145q0 19 3 39q13 100 82 187q70 86 181 130q126 45 232 45q94 0 172 -35
q167 -72 251 -250q72 -152 72 -340q0 -30 -2 -62q-15 -214 -116 -369q-102 -156 -259 -214q-65 -24 -136 -24z" />
    <glyph glyph-name="P" unicode="P" horiz-adv-x="1431" 
d="M452 -99l-35 1112q-82 -13 -127 -75q-45 -63 -59 -145q-6 -40 -6 -78q0 -40 7 -79q14 -75 48 -114q-55 -35 -110 -35q-13 0 -26 2q-68 10 -110 82q-34 59 -34 163l2 49q18 170 108 261t218 126q127 36 259 38q50 3 100 3q58 0 115 -3q108 -4 202 -30q96 -24 169 -78
q73 -55 115 -148q43 -93 43 -237q0 -148 -83 -264q-83 -115 -209 -163q-63 -23 -128 -23q-68 0 -139 25l3 -324zM836 414q28 0 58 15q65 33 112 112q45 80 47 180q0 69 -29 142q-28 73 -93 121q-53 39 -135 39q-16 0 -32 -1l4 -586q33 -22 68 -22z" />
    <glyph glyph-name="Q" unicode="Q" horiz-adv-x="1094" 
d="M697 -75l-41 69q-84 -40 -182 -40h-6q-95 0 -196 46q-99 48 -146 122q-46 75 -52 157l-2 45q0 73 21 118q26 58 70 82q43 23 88 24h15q35 0 59 -6q28 -8 28 -13q-44 -49 -44 -125v-5q0 -79 35 -142q34 -58 88 -58h6q44 6 80 28l-89 149l126 106l80 -107q49 123 49 266v9
q-2 149 -53 255q-51 104 -143 104h-3q-55 -7 -92 -67q-37 -59 -47 -134q-2 -20 -2 -38q0 -50 18 -87q23 -39 44 -48q16 -6 35 -6l27 1q-23 -32 -83 -53q-32 -10 -69 -10q-34 0 -74 9q-140 40 -196 125q-46 67 -46 146q0 18 3 38q14 100 83 187q70 86 181 130q126 45 232 45
q93 0 171 -35q168 -72 251 -250q73 -152 73 -341q0 -30 -2 -61q-21 -267 -168 -437l108 -145z" />
    <glyph glyph-name="R" unicode="R" horiz-adv-x="1433" 
d="M1104 -109l-329 316l2 -241l-322 -65l-36 1112q-78 -13 -123 -77q-44 -63 -59 -148q-9 -49 -9 -95q0 -34 5 -67q12 -77 47 -116q-40 -9 -80 -9q-28 0 -56 4q-68 9 -110 71q-34 49 -34 148l2 47q19 172 112 265q94 94 227 133q132 39 265 44q89 6 177 6h35q105 -2 197 -23
q93 -22 164 -72q72 -51 113 -141q41 -91 41 -232q0 -106 -44 -196q-43 -90 -118 -151q-74 -62 -166 -85l311 -324zM783 479q63 0 122 27q65 28 107 91q42 62 44 160q0 68 -29 133q-30 64 -93 103q-51 31 -128 31l-39 -2l4 -543h12z" />
    <glyph glyph-name="S" unicode="S" horiz-adv-x="947" 
d="M419 -110h-8q-123 0 -218 47q-99 50 -147 144q-33 64 -33 146q0 39 8 82l268 43q0 -126 37 -179q37 -50 86 -50h3q51 1 86 37q31 30 31 70l-1 13q-15 77 -81 131t-152 102q-102 56 -188 131t-108 197q-2 20 -2 40q0 100 57 188q69 105 178 150q114 46 224 46l31 -1
q125 -7 219 -80q97 -80 128 -194q10 -37 10 -74q0 -74 -42 -146l-299 25q40 68 40 117q0 17 -5 31q-18 56 -73 71q-18 5 -36 5q-36 0 -72 -20q-53 -30 -68 -109v-7q0 -44 50 -85q55 -43 139 -93q108 -61 207 -143q100 -82 132 -202q11 -47 11 -90q0 -74 -33 -135
q-51 -97 -154 -151q-102 -54 -225 -57z" />
    <glyph glyph-name="T" unicode="T" horiz-adv-x="997" 
d="M519 -85l-41 1085h-12q-59 0 -110 -26q-93 -56 -103 -153q-1 -12 -1 -25q0 -81 61 -150q-66 -24 -127 -24h-14q-69 3 -116 54q-46 53 -55 171l-1 24q0 91 40 174q45 94 153 157q93 49 210 49l25 -1q133 -5 272 -28q49 -8 107.5 -17t103 -15.5l44.5 -6.5q83 -2 125.5 12.5
t72.5 35.5l44 -154q-75 -66 -165 -91q-85 -19 -178 -17h-20l-28 -994z" />
    <glyph glyph-name="U" unicode="U" horiz-adv-x="1497" 
d="M848 -41q-193 0 -284 78q-106 92 -138 332q-19 132 -23 282q-4 124 -4 234v47q-76 -8 -123 -71q-45 -62 -62 -148q-10 -52 -10 -100q0 -34 4 -66q12 -80 49 -122l-32 -8q-53 -14 -95 -17h-8q-37 0 -65 25q-30 28 -45 106q-12 63 -12 124q0 101 34 194q56 151 224 235
q71 30 185 42q115 12 220 16q20 1 38 2q26 1 49 3l-1 -17q-6 -48 -14 -135q-1 -16 -3 -33q-9 -111 -13 -244l-1 -62q0 -100 9 -194q12 -123 49 -205t106 -91h6q79 0 120 82q42 86 56 222q11 119 11 244v35q-3 144 -9 256q-5 82 -5 125v17l317 2q14 -106 18 -300l1 -58
q0 -165 -23 -336q-30 -241 -129 -361t-324 -132q-38 -3 -73 -3z" />
    <glyph glyph-name="V" unicode="V" horiz-adv-x="1105" 
d="M482 -56q-123 3 -210 97q-87 93 -143 243q-57 148 -87 314q-29 165 -38 310q-4 72 -4 130q0 57 4 100l328 -4q-3 -11 -3 -37q0 -44 7 -132q12 -140 36 -313q24 -174 54 -303q31 -129 64 -136q36 3 69 93q32 92 58 228q25 136 43 277q17 140 24 242q3 55 3 87q0 28 -2 38
q176 -10 249 -69q71 -57 71 -172v-10q-3 -123 -60 -324q-45 -167 -112 -316q-68 -149 -155 -244q-88 -94 -196 -99z" />
    <glyph glyph-name="W" unicode="W" horiz-adv-x="1470" 
d="M914 -56q-85 2 -144 57q-60 55 -97 145q-39 -90 -100 -145t-147 -57q-123 3 -204 96q-81 95 -129 243q-48 149 -69 315q-21 165 -23 311l-1 57q0 107 9 177l327 -3q-5 -22 -5 -107v-54q3 -132 15 -300q13 -168 34 -302q29 -158 72 -158l5 1q46 10 83 164q24 112 35 244
q12 133 17 241q3 81 8 121l193 -59l5 -112q2 -88 8 -196t20 -204q15 -96 42 -145q17 -31 42 -31q14 0 30 10q38 33 62 167q23 135 34 301q11 168 11 298v41q0 96 -6 120q156 -18 229 -84q74 -66 90 -174q10 -64 10 -140q0 -53 -5 -111q-13 -195 -67 -360q-53 -165 -149 -265
t-235 -102z" />
    <glyph glyph-name="X" unicode="X" horiz-adv-x="1428" 
d="M1051 -68l-183 366l-223 -320l-296 5l369 578q-10 20 -24 51l-4 8q-34 80 -88 178q-53 98 -121 156q-41 35 -86 35q-29 0 -60 -15q-62 -37 -71 -105q-3 -20 -3 -41q0 -49 18 -102q26 -73 75 -125l-41 -16q-64 -29 -120 -41q-16 -3 -30 -3q-38 0 -70 22q-44 32 -74 132
q-19 70 -19 138q0 64 17 125q35 127 135 212q101 84 259 92h6q116 0 207 -54q93 -57 164 -151q71 -96 120 -210l207 317l320 -2l-368 -587l306 -577z" />
    <glyph glyph-name="Y" unicode="Y" horiz-adv-x="1456" 
d="M895 -121h-18q-157 6 -307 121l90 236q83 -93 169 -93l17 1q96 11 135 134q21 75 34 174q-45 -51 -107 -81q-63 -29 -146 -29q-175 15 -262 118q-85 103 -108 247q-13 84 -13 166q0 60 7 120q-96 -28 -137 -121q-35 -77 -35 -161l2 -36q9 -103 63 -165h-3q-15 -1 -32 -4
q-34 -6 -66 -6q-37 0 -72 7q-66 12 -90 98q-16 70 -16 132q0 17 1 34q18 166 101 263q83 96 205 141t255 56q98 8 186 8l62 -1q-19 -48 -46 -153t-41 -222q-7 -53 -7 -98q0 -55 10 -99q17 -80 84 -80h2q84 8 135 76q53 66 78 155q26 88 32 157l5 112q3 98 7 143l287 11
q-6 -93 -9.5 -142t-5.5 -73q-1 -24 -2.5 -44t-3.5 -53.5t-6.5 -98.5t-11.5 -179q-4 -111 -18 -245q-13 -133 -47 -252q-35 -118 -103 -182q-108 -92 -254 -92z" />
    <glyph glyph-name="Z" unicode="Z" horiz-adv-x="1348" 
d="M1220 -79l-1014 18l582 973l-47 2q-43 3 -95 3l-80 -2q-102 -4 -187 -40q-85 -35 -113 -125q-8 -25 -8 -56q0 -81 52 -201q-73 -25 -138 -27h-9q-60 0 -102 39q-45 41 -58 144q-3 27 -3 54q0 98 42 190q53 118 164 199q111 75 263 104q151 28 314 28h41q141 0 270 -8
q109 -6 194 -6l56 1l-603 -1013l479 33v-310z" />
    <glyph glyph-name="bracketleft" unicode="[" horiz-adv-x="456" 
d="M388 -182l-381 29l-7 1590l380 31l11 -153l-169 -27v-1283l166 -8v-179z" />
    <glyph glyph-name="backslash" unicode="\" horiz-adv-x="823" 
d="M582 -227l-582 1668l205 67l553 -1677z" />
    <glyph glyph-name="bracketright" unicode="]" horiz-adv-x="456" 
d="M3 -182v179l166 8v1283l-169 27l10 153l381 -31l-7 -1590z" />
    <glyph glyph-name="asciicircum" unicode="^" horiz-adv-x="542" 
d="M162 685l-112 55l219 283l223 -283l-120 -50l-102 132z" />
    <glyph glyph-name="underscore" unicode="_" horiz-adv-x="661" 
d="M1 -53l-1 97l661 4l-5 -101h-655z" />
    <glyph glyph-name="grave" unicode="`" horiz-adv-x="391" 
d="M247 740l-197 198l121 58l170 -195z" />
    <glyph glyph-name="a" unicode="a" horiz-adv-x="971" 
d="M695 -4h-13q-93 6 -148 110q-90 -83 -207 -83q-96 0 -171 59q-73 58 -115 156q-41 98 -41 218q0 119 41 217q42 99 115 157q75 58 171 58q75 0 141 -36l-4 71l354 -40l-25 -508v-12q0 -80 39 -87l10 -1q38 0 82 51q50 58 72 160q6 10 13 10l3 -1q11 -2 15 -14
q9 -32 9 -69q0 -70 -33 -157q-50 -134 -140 -203q-82 -56 -168 -56zM381 243q41 0 63 27q24 27 34 73q11 46 11 101l-1 31q-3 40 -8 68.5t-19 56.5q-23 45 -74 45q-37 0 -62 -41q-24 -41 -33 -101q-5 -32 -5 -65q0 -27 3 -54q7 -59 30 -100q22 -41 61 -41z" />
    <glyph glyph-name="b" unicode="b" horiz-adv-x="887" 
d="M20 7l-49 1225l385 16l-11 -379q69 41 149 41q99 0 172.5 -58.5t114.5 -157t41 -217.5q0 -123 -42 -221t-116 -154.5t-170 -56.5q-94 0 -172 55l-1 -33zM440 264q39 0 62 41q23 42 29 101q3 26 3 51q0 34 -5 68q-8 60 -32 100q-24 41 -63 41q-51 0 -74 -44
q-22 -44 -26 -114l-1 -42q0 -55 10 -102q11 -45 34 -72q24 -28 63 -28z" />
    <glyph glyph-name="c" unicode="c" horiz-adv-x="751" 
d="M389 10q-94 0 -177 48q-84 53 -143 158t-68 234l-1 35q0 165 77 281q84 129 231 143l35 1q78 0 145 -22q82 -27 133 -102q53 -75 57 -210l-195 -27q-10 68 -39 97q-20 22 -44 22q-8 0 -17 -3q-50 -15 -73 -86q-20 -60 -20 -127l1 -27q4 -83 37 -134q61 -79 144 -79
q11 0 23 1q98 14 180 92q81 77 105 181q5 10 13 10l3 -1q10 -2 14 -14q6 -19 6 -46v-11q-1 -34 -6 -59q-27 -150 -129 -240t-231 -110q-31 -5 -61 -5z" />
    <glyph glyph-name="d" unicode="d" horiz-adv-x="982" 
d="M711 -4q-45 0 -85 21q-57 29 -90 112q-91 -84 -208 -84q-97 0 -171 58q-73 58 -115 157t-42 217q0 120 42 218t115 157q74 58 171 58q83 0 152 -43v47q-1 168 -6 284l364 -1q-6 -116 -16 -259q-10 -158 -18 -316q-4 -75 -4 -142q0 -73 5 -136q7 -69 46 -69h3q41 1 87 58
t67 153q5 10 12 10l4 -1q9 -2 14 -14q9 -32 9 -70q0 -69 -32 -156q-50 -134 -140 -203q-60 -42 -126 -53q-19 -3 -38 -3zM382 264q39 0 63 28q24 27 34 72q10 47 10 102q0 56 -9 101t-31 72t-61 27t-62 -41q-24 -40 -33 -100q-5 -34 -5 -68q0 -25 3 -51q6 -59 29 -101
q23 -41 62 -41z" />
    <glyph glyph-name="e" unicode="e" horiz-adv-x="774" 
d="M393 10q-97 0 -179 48q-112 72 -166 206q-48 117 -48 242l1 36q9 146 84 249q77 105 225 118l30 1q203 0 288 -115q68 -91 68 -227q0 -48 -9 -102l-394 -31v-9q0 -31 8 -66q9 -40 29 -69q61 -79 148 -79q12 0 24 1q103 14 190 92q87 77 111 181q5 10 12 10l4 -1
q9 -2 14 -14q6 -22 6 -57q-1 -34 -6 -59q-27 -150 -135 -240q-107 -90 -241 -110q-33 -5 -64 -5zM298 520l188 28q-10 69 -39 97q-21 22 -44 22q-8 0 -17 -3q-36 -9 -57 -49q-22 -39 -31 -95z" />
    <glyph glyph-name="f" unicode="f" horiz-adv-x="490" 
d="M41 -133q-109 1 -225 88l33 62h3q6 0 19 -3q24 -7 54 -10h6q26 0 41 14q24 28 31 70q8 42 9 102l-18 506l-88 -5l-2 254l81 -6q0 12 -0.5 18.5t-0.5 10.5q-1 5 -1 9v11v20q0 228 139 286q40 16 87 16q118 0 281 -104l-42 -176q-27 16 -43 16q-9 0 -15 -6q-13 -16 -18 -69
l-4 -60l99 -8l-4 -181l-108 -6l-41 -632q-12 -97 -87 -158q-75 -59 -186 -59z" />
    <glyph glyph-name="g" unicode="g" horiz-adv-x="888" 
d="M402 -390h-20q-151 7 -296 118l62 99q38 -41 92 -41q10 0 21 1q67 10 124 56q56 45 63 107l10 130q-55 -35 -130 -35q-97 0 -171 58t-115 157q-42 99 -42 217q0 120 42 218q41 98 115 157q74 58 171 58q59 0 105 -22q47 -22 81 -63l6 82l288 11l-62 -989
q-6 -158 -111 -242q-96 -77 -233 -77zM382 264q38 2 57 60t19 137q0 78 -17 139q-18 62 -53 66h-2q-47 0 -71 -58q-25 -57 -27 -136v-9q0 -74 22 -131q24 -62 72 -68z" />
    <glyph glyph-name="h" unicode="h" horiz-adv-x="1007" 
d="M731 -5q-72 0 -126 58q-60 63 -70 212l-1 29l-5 86q-3 49 -10 97q-8 48 -20 81q-13 32 -34 32q-28 0 -50 -34t-36 -87q-14 -52 -23 -109q-8 -57 -11 -105l-5 -188l-323 -64l-41 1228l399 17l-13 -439q63 81 177 82q117 -12 178 -82q63 -69 86 -171q24 -100 27 -204v-29
l-1 -27q0 -28 5 -58q7 -42 43 -45q42 0 88 58q46 57 67 153q6 10 13 10l3 -1q11 -2 15 -14q9 -32 9 -69q0 -70 -33 -157q-50 -134 -140 -203q-74 -51 -155 -56z" />
    <glyph glyph-name="i" unicode="i" horiz-adv-x="487" 
d="M210 941h-12q-86 0 -135 21q-53 21 -74 57q-20 36 -20 73q0 38 19 69q18 31 62 49q45 18 118 19q110 -2 149 -52q37 -46 37 -103v-9q0 -49 -35 -85q-34 -34 -109 -39zM212 -5q-73 0 -127 58q-60 63 -70 212l-35 622l354 -40l-25 -478q0 -86 39 -93l10 -1q38 0 82 51
q50 58 73 160q5 10 12 10l4 -1q9 -2 14 -14q9 -32 9 -70q0 -69 -32 -156q-51 -134 -140 -203q-74 -51 -155 -56z" />
    <glyph glyph-name="j" unicode="j" horiz-adv-x="437" 
d="M-51 -385h-11q-160 2 -306 113l61 99q32 -34 86 -34l25 2q72 9 134 50q63 42 73 102q8 86 8 188q0 131 -13 289q-23 277 -40 407l-2 21l371 30l-2 -936q-8 -159 -122 -246q-110 -85 -262 -85zM193 931h-11q-85 0 -136 21q-52 21 -73 57t-21 73q0 38 19 69q20 30 63 49
q44 18 118 19q110 -3 149 -52q36 -44 36 -100v-12q0 -49 -34 -85q-35 -36 -110 -39z" />
    <glyph glyph-name="k" unicode="k" horiz-adv-x="890" 
d="M17 3l-41 1228l399 17l-14 -485q74 76 177 104q104 29 200 29l4 -328q-186 -13 -265 -42q-79 -28 -80 -64q0 -64 78 -110q78 -44 182 -49l21 -1q92 0 161 49q61 45 80 135q5 10 12 10l4 -1q9 -2 14 -14q6 -19 6 -46v-11q-1 -35 -6 -59q-23 -124 -83 -202
q-105 -137 -229 -137h-3q-126 0 -238 98q-26 23 -53 53l-3 -110z" />
    <glyph glyph-name="l" unicode="l" horiz-adv-x="497" 
d="M227 -5q-55 0 -102 31q-59 39 -86 140q-28 129 -39 353q-10 224 -13 441q-3 152 -7 257l391 20q-6 -138 -24 -319q-15 -157 -25 -310q-6 -92 -6 -170q0 -50 3 -94q7 -69 46 -69h3q42 1 88 58q45 57 66 153q6 10 13 10l3 -1q11 -2 15 -14q9 -32 9 -69q0 -70 -33 -157
q-50 -134 -140 -203q-64 -45 -135 -55z" />
    <glyph glyph-name="m" unicode="m" horiz-adv-x="1437" 
d="M1162 -5q-73 0 -127 58q-59 63 -70 212l-1 37q-1 55 -7 130q-5 75 -19 133q-13 59 -40 63q-45 0 -64 -76q-19 -75 -25 -179q0 -81 -7 -156v-1q-11 -108 -29 -185l-277 9q8 56 12 146q4 61 4 122l-1 62q-3 93 -18 157q-14 63 -45 66q-41 -4 -62 -76q-21 -71 -27 -161
l-12 -305l-323 -48l-41 918l399 12l-3 -78q46 38 119 38h5q85 -7 142 -50q57 -42 92 -110q33 86 91 141q57 55 144 55q140 -8 201 -82q62 -74 75 -184q13 -93 13 -190l-2 -90l1 -30q2 -31 12 -54q11 -24 36 -24q41 0 87 58q47 57 68 153q5 10 12 10l4 -1q9 -2 14 -14
q9 -32 9 -70q0 -69 -32 -156q-50 -134 -140 -203q-74 -51 -155 -56z" />
    <glyph glyph-name="n" unicode="n" horiz-adv-x="1015" 
d="M739 -5q-72 0 -126 58q-60 63 -70 212q-1 11 -1 29l-5 86q-3 49 -10 97q-8 48 -20 81q-13 32 -34 32q-30 0 -51 -36t-35 -92q-15 -54 -22 -114q-8 -58 -11 -106l-9 -193l-322 -46l-41 879l399 12l-3 -76q62 72 169 73q117 -12 178 -82q63 -69 86 -171q24 -100 27 -204
v-29l-1 -27q0 -28 5 -58q7 -42 43 -45q42 0 88 58q46 57 67 153q5 10 12 10l4 -1q10 -2 15 -14q9 -32 9 -69q0 -70 -33 -157q-50 -134 -140 -203q-74 -51 -155 -56z" />
    <glyph glyph-name="o" unicode="o" horiz-adv-x="826" 
d="M330 26h-5q-98 0 -172 59t-114 158q-39 95 -39 213v9q3 122 47 221q43 99 119 158q76 60 174 60q163 -7 250 -114q88 -105 104 -254q41 1 86 31t64 114q5 10 12 10l4 -1q10 -2 15 -14q11 -28 11 -62q0 -22 -4 -45q-36 -138 -112 -183q-50 -30 -105 -30q-30 0 -61 9
q-89 24 -159 98q-69 72 -92 173q-25 -20 -40 -64q-16 -45 -19 -99l-2 -41q0 -33 5 -65q8 -51 30 -85q21 -33 57 -33q45 0 72 42q28 41 38 102q79 -56 164 -56l24 1q-30 -135 -120 -224q-89 -88 -232 -88z" />
    <glyph glyph-name="p" unicode="p" horiz-adv-x="924" 
d="M28 -337l-42 1228l354 15l1 -54q76 51 166 51q98 0 172 -59t115 -157t41 -217q0 -123 -42.5 -221t-116.5 -154.5t-169 -56.5q-86 0 -160 47l3 -358zM453 257q39 0 62 41q22 42 29 101q3 25 3 51q0 34 -5 68q-9 59 -32 100q-24 41 -63 41t-61 -27q-23 -27 -31 -72
q-9 -46 -9 -102q0 -55 10 -101q11 -45 34 -73q24 -27 63 -27z" />
    <glyph glyph-name="q" unicode="q" horiz-adv-x="990" 
d="M600 -364q-45 0 -83 30q-73 56 -73 255l5 154q-52 -30 -121 -30q-96 0 -171 58q-73 58 -115 157t-42 217q0 120 42 218t115 157q75 58 171 58q87 0 146 -47l1 36l354 -2l-65 -878q3 -15 11 -15q10 0 28 24q34 42 79 125q45 84 83 175q39 92 54 158q5 10 12 10l4 -1
q9 -2 14 -14q6 -22 6 -52q0 -56 -21 -140q-33 -126 -82 -250q-48 -123 -79 -180q-78 -138 -180 -195q-50 -28 -93 -28zM382 264q38 2 57 60t19 137q0 78 -17 139q-17 62 -53 66h-2q-47 0 -71 -58q-25 -57 -27 -136v-9q0 -74 22 -131q24 -62 72 -68z" />
    <glyph glyph-name="r" unicode="r" horiz-adv-x="748" 
d="M22 6l-39 877l378 11l-3 -83q72 67 175 67q74 0 165 -35l-83 -296q-68 41 -119 41q-49 0 -81 -39q-66 -79 -81 -311l-8 -189z" />
    <glyph glyph-name="s" unicode="s" horiz-adv-x="665" 
d="M264 -26l-30 1q-146 10 -221 81q-82 71 -110 198l143 26q-4 0 5.5 -13.5t31.5 -30t56.5 -28t81.5 -10.5q19 0 37 6q40 12 40 43v4q-9 38 -43 67q-35 30 -80 58q-64 38 -123 94q-57 57 -74 152l-2 29q0 72 42 135q50 76 129 109q84 33 164 33q21 0 41 -2q100 -12 167 -85
q68 -72 76 -214l-211 -25q0 32 -22 51q-22 20 -49 27q-14 4 -25 4q-10 0 -18 -3q-31 -14 -31 -32q0 -10 11 -22q30 -31 99 -75q73 -43 143 -103q70 -59 94 -136q6 -28 6 -56q0 -57 -26 -110q-40 -78 -117 -124q-91 -49 -185 -49z" />
    <glyph glyph-name="t" unicode="t" horiz-adv-x="495" 
d="M225 -5q-55 0 -102 31q-58 39 -85 140q-25 107 -36 284q-10 179 -14 369l-103 -5l-2 253l101 -7q-1 35 -2 67q-1 49 -3 90l391 20q-5 -91 -14 -204l92 -7l-4 -182l-105 -5q-14 -139 -20 -268q-4 -72 -4 -133q0 -50 3 -94q7 -69 46 -69h3q41 1 87 58t67 153q5 10 12 10
l4 -1q9 -2 14 -14q9 -32 9 -70q0 -69 -32 -156q-50 -134 -140 -203q-64 -45 -135 -55z" />
    <glyph glyph-name="u" unicode="u" horiz-adv-x="1017" 
d="M745 -5q-61 0 -112 39q-58 46 -81 163q-36 -85 -96 -139q-60 -55 -150 -55q-136 15 -205 117q-68 103 -89 247q-12 94 -12 187q0 50 3 100q11 143 33 237l308 -10q-14 -48 -22 -139q-6 -69 -6 -142v-49q2 -99 17 -170q16 -71 47 -71q32 0 59 44q27 43 45 107
q20 63 28 129q8 49 8 88l-11 209l356 3l-27 -515v-12q0 -80 39 -87l10 -1q38 0 82 51q50 58 72 160q6 10 13 10l3 -1q11 -2 15 -14q10 -32 10 -69q0 -70 -34 -157q-49 -134 -140 -203q-67 -47 -142 -56z" />
    <glyph glyph-name="v" unicode="v" horiz-adv-x="994" 
d="M389 3q-120 5 -206 101q-86 97 -138 241q-51 145 -71 293q-14 97 -14 176q0 41 4 78l327 -3q-10 -35 -10 -102l1 -42q3 -98 20 -200q16 -103 42 -164q17 -41 37 -41q9 0 19 9q31 29 63 192q17 99 20 205v21q0 90 -12 135l333 -23q1 -16 1 -37q0 -25 -2 -56q-2 -34 -2 -68
q0 -33 2 -65q5 -64 35 -86q19 -11 42 -11t50 11q55 21 77 114q6 10 12 10l4 -1q10 -2 15 -14q11 -28 11 -62q0 -22 -4 -45q-43 -169 -150 -201q-31 -10 -65 -10q-82 0 -181 57q16 -20 40 -35q23 -14 40 -20q-55 -147 -145 -250q-89 -104 -195 -107z" />
    <glyph glyph-name="w" unicode="w" horiz-adv-x="1414" 
d="M800 3q-66 0 -114 41q-48 40 -82 109q-34 -69 -82 -109q-49 -39 -114 -41q-147 1 -237 97q-89 96 -134 242q-44 146 -55 294q-5 72 -5 135q0 66 6 121l327 -3q-11 -38 -11 -109l1 -36q4 -97 21 -193q29 -160 59 -196q13 -15 25 -15q16 0 31 28q26 48 42 139q17 90 20 180
l1 34q0 67 -12 106l223 25q-5 -37 -5 -84q0 -52 5 -115q9 -121 33 -221q24 -99 56 -109h1q30 0 52 71q23 71 37 173q14 103 17 193l1 35q0 64 -9 94l327 3q1 -18 1 -41q0 -28 -2 -62q-3 -42 -3 -81q0 -28 1 -54q5 -64 36 -87q19 -11 42 -11t50 11q55 21 78 114q5 10 12 10
l4 -1q9 -2 14 -14q11 -34 11 -69q0 -58 -30 -119q-48 -96 -139 -125q-30 -7 -59 -7q-41 0 -80 15q-67 25 -121 63q29 -38 56 -56q28 -19 42 -25q1 -1 2 -1q3 -2 4 -2.5t1 -1.5q-51 -148 -137 -244q-84 -97 -208 -101z" />
    <glyph glyph-name="x" unicode="x" horiz-adv-x="971" 
d="M732 2l-18 1q-63 8 -115 57q-51 49 -99 113q-2 3 -4 5q-26 33 -53 64l-181 -228l-262 12l294 447l-270 403l351 11l87 -157l112 170l320 -3l-281 -433q28 -51 70 -106t95 -81q20 -9 40 -9q35 0 71 25q35 26 63 75q30 49 44 118q6 10 13 10l3 -1q11 -2 15 -14q9 -32 9 -69
q0 -70 -33 -157q-50 -134 -140 -203q-73 -50 -131 -50z" />
    <glyph glyph-name="y" unicode="y" horiz-adv-x="895" 
d="M415 -390h-20q-150 7 -295 118l67 107q48 -32 96 -32q18 0 36 5q66 16 113 71q46 55 54 127l6 81q-65 -67 -165 -67q-136 14 -205 114q-69 101 -89 242q-13 92 -13 183q0 49 4 98q10 139 33 232l308 -10q-15 -46 -22 -136q-7 -67 -7 -139l1 -48q2 -97 17 -166
q14 -70 47 -70t60 48q26 47 44 115t27 132l22 292l287 11l-61 -989q-8 -158 -111 -242q-97 -77 -234 -77z" />
    <glyph glyph-name="z" unicode="z" horiz-adv-x="854" 
d="M769 16l-760 22l16 163l314 424l-287 2l-34 280l772 12l-358 -642l313 48z" />
    <glyph glyph-name="braceleft" unicode="{" horiz-adv-x="532" 
d="M421 -211q-129 25 -191 108q-65 91 -88 213.5t-30 251.5q-2 60 -19 107q-18 47 -85 65l-8 207q50 14 74.5 39t28.5 72q15 149 45.5 286t92.5 235t171 132l55 -208q-63 -22 -93 -86.5t-40 -146t-12 -154.5q-2 -48 -5 -82q-5 -58 -40 -111t-105 -79q64 -30 105 -112
t51 -174q4 -52 5 -108q1 -113 20 -205t92 -114z" />
    <glyph glyph-name="bar" unicode="|" horiz-adv-x="281" 
d="M197 -203h-171l-26 1677h216z" />
    <glyph glyph-name="braceright" unicode="}" horiz-adv-x="532" 
d="M46 -211l-24 136q72 22 91 114t20 205q2 56 6 108q9 92 50.5 174t105.5 112q-70 26 -105 79t-41 111q-3 34 -5 82q-2 73 -11.5 154.5t-39.5 146t-93 86.5l54 208q110 -34 172 -132t92 -235t45 -286q5 -47 29.5 -72t74.5 -39l-8 -207q-67 -18 -85 -65t-19 -107
q-7 -129 -30.5 -251.5t-88.5 -213.5q-62 -83 -190 -108z" />
    <glyph glyph-name="asciitilde" unicode="~" horiz-adv-x="497" 
d="M308 234q-37 0 -76 18q-27 14 -60 15q-33 0 -51 -32l-71 52q42 84 95 85q54 0 104 -25q40 -18 70 -20q17 0 33 14t23 33l72 -29q-27 -81 -88 -102q-25 -9 -51 -9z" />
    <glyph glyph-name="exclamdown" unicode="&#xa1;" horiz-adv-x="417" 
d="M90 1048h187l74 -1160l-351 -4zM147 1367h10q74 0 115 -20q45 -22 63 -58q17 -35 17 -73q0 -37 -16 -68q-15 -31 -53 -49q-37 -18 -100 -20q-94 3 -127 52q-32 49 -32 107v5q2 51 30 85q30 36 93 39z" />
    <glyph glyph-name="quoteleft" unicode="&#x2018;" horiz-adv-x="303" 
d="M206 1023q15 0 15 -5l-1 -2q-4 -8 -17 -21q-17 -17 -31 -38q-9 -14 -9 -29q0 -8 3 -17l17 2q30 0 48 -21q22 -27 22 -66q0 -40 -26 -69q-27 -28 -75 -30q-61 2 -85 46q-17 32 -17 69q0 16 3 33q10 59 49 102q40 44 104 46z" />
    <glyph glyph-name="quoteright" unicode="&#x2019;" horiz-adv-x="303" 
d="M97 727q-15 0 -14 5v2q4 8 17 21q17 17 31 38q9 14 9 29q0 8 -3 17l-17 -2q-30 0 -48 21q-22 27 -22 66q0 41 26 69q27 29 75 30q61 -2 85 -46q17 -32 17 -69q0 -16 -3 -33q-10 -58 -49 -102q-40 -44 -104 -46z" />
    <glyph glyph-name="quotesinglbase" unicode="&#x201a;" horiz-adv-x="304" 
d="M97 -82q-14 0 -13 6v2q3 8 17 20q16 17 31 38q9 14 9 29q0 8 -3 17l-17 -2q-30 0 -48 21q-23 27 -23 67q0 39 27 68q26 30 74 30q62 -2 86 -46q17 -31 17 -69q0 -16 -3 -33q-11 -58 -50 -102t-104 -46z" />
    <glyph glyph-name="quotedblleft" unicode="&#x201c;" horiz-adv-x="527" 
d="M430 1023q15 0 15 -5l-1 -2q-4 -8 -17 -21q-17 -17 -31 -38q-9 -14 -9 -29q0 -8 3 -17l17 2q30 0 48 -21q22 -27 22 -66q0 -40 -26 -69q-27 -28 -75 -30q-61 2 -85 46q-17 32 -17 69q0 16 3 33q10 59 49 102q40 44 104 46zM206 1023q14 0 14 -5l-1 -2q-3 -8 -17 -21
q-16 -17 -30 -38q-10 -15 -10 -30q0 -8 3 -16l18 2q30 0 47 -21q23 -27 23 -66q0 -40 -27 -69q-26 -28 -74 -30q-62 2 -86 46q-16 32 -16 69q0 16 3 33q10 59 49 102q39 44 104 46z" />
    <glyph glyph-name="quotedblright" unicode="&#x201d;" horiz-adv-x="527" 
d="M97 727q-15 0 -14 5v2q4 8 17 21q17 17 31 38q9 14 9 29q0 8 -3 17l-17 -2q-30 0 -48 21q-22 27 -22 66q0 41 26 69q27 29 75 30q61 -2 85 -46q17 -32 17 -69q0 -16 -3 -33q-10 -58 -49 -102q-40 -44 -104 -46zM321 727q-14 0 -13 5v2q3 8 17 21q17 17 30 38q10 15 10 30
q0 8 -3 16l-17 -2q-31 0 -48 21q-23 27 -23 66q0 41 27 69q26 29 74 30q62 -2 86 -46q16 -32 16 -69q0 -16 -3 -33q-9 -58 -49 -102q-39 -44 -104 -46z" />
    <glyph glyph-name="quotedblbase" unicode="&#x201e;" horiz-adv-x="543" 
d="M97 -82q-14 0 -13 6v2q3 8 17 20q16 17 31 38q9 14 9 29q0 8 -3 17l-17 -2q-30 0 -48 21q-23 27 -23 67q0 39 27 68q26 30 74 30q62 -2 86 -46q17 -31 17 -69q0 -16 -3 -33q-11 -58 -50 -102t-104 -46zM336 -82q-14 0 -13 6v2q3 8 17 20q16 17 31 38q9 14 9 29q0 8 -3 17
l-17 -2q-30 0 -48 21q-23 27 -23 67q0 39 27 68q26 30 74 30q62 -2 86 -46q17 -31 17 -69q0 -16 -3 -33q-11 -58 -50 -102t-104 -46z" />
    <glyph glyph-name="franc" unicode="&#x20a3;" horiz-adv-x="921" 
d="M413 19l-302 17l-3 295h-107l-1 144l106 1l-7 563l-87 6l-8 208l852 46l-9 -253l-392 -3l-1 -243l320 20l-9 -253l-323 16l-5 -104l97 1l-4 -149h-101z" />
    <glyph glyph-name="lira" unicode="&#x20a4;" horiz-adv-x="1016" 
d="M756 -22q-11 0 -23 1q-76 7 -171 37q-97 31 -210 47q-33 5 -66 5q-81 0 -167 -27q-21 -7 -36 -7q-17 0 -26 9q-16 15 -25 45l-7 20l-9 18q-15 29 -16 55v4q0 25 36 47q57 32 86 84q29 53 39 120h-128l-1 143l137 2l-1 64h-135l-1 143l131 2l-1 48q0 107 21 200
q27 115 124 184q91 65 279 65h24q225 -11 279 -127q23 -48 23 -107q0 -84 -46 -192l-189 79q19 49 19 81q0 24 -10 39q-23 35 -72 35h-4q-129 -4 -177 -90t-49 -213l182 2l-4 -149h-177q2 -28 2 -57q1 -1 1 -2v-3l178 2l-4 -149h-170v-9q0 -102 -31 -164q91 -11 179 -47
q79 -31 136 -36h7q52 0 68 67l200 -42q-29 -138 -85 -186q-47 -41 -110 -41z" />
    <glyph glyph-name="peseta" unicode="&#x20a7;" horiz-adv-x="2449" 
d="M836 414q28 0 58 15q65 33 112 112q45 80 47 180q0 69 -29 142q-28 73 -93 121q-53 39 -135 39q-16 0 -32 -1l4 -586q33 -22 68 -22zM1848 246l1 1q-1 -2 7 -13q9 -14 31 -30.5t56.5 -28t81.5 -10.5q19 0 37 6q40 12 40 43v4q-9 38 -43 67q-35 30 -80 58q-64 38 -123 94
q-57 57 -74 152l-2 29q0 72 42 135q50 76 129 109q84 33 164 33q21 0 41 -2q100 -12 167 -85q68 -72 76 -214l-211 -25q0 32 -22 51q-22 20 -49 27q-14 4 -25 4q-10 0 -18 -3q-31 -14 -31 -32q0 -10 11 -22q30 -31 99 -75q73 -43 143 -103q70 -59 94 -136q6 -28 6 -56
q0 -57 -26 -110q-40 -78 -117 -124q-91 -49 -185 -49l-30 1q-146 10 -221 81q-21 17 -36 37q-32 -52 -75 -85q-54 -37 -113 -46l-23 -2q-46 0 -85 26q-49 33 -71 117q-21 89 -30 236q-8 149 -12 308l-52 -2q-19 -87 -72 -161q-83 -115 -209 -163q-63 -23 -128 -23
q-68 0 -139 25l3 -324l-323 -65l-35 1112q-82 -13 -127 -75q-45 -63 -59 -145q-6 -40 -6 -78q0 -40 7 -79q14 -75 48 -114q-55 -35 -110 -35q-13 0 -26 2q-68 10 -110 82q-34 59 -34 163l2 49q18 170 108 261t218 126q127 36 259 38q50 3 100 3q58 0 115 -3q108 -4 202 -30
q96 -24 169 -78q73 -55 115 -148q27 -57 37 -134l44 -3q-1 29 -2 55q-1 41 -2 75l326 17q-4 -76 -12 -170l77 -6l-4 -151l-87 -5q-12 -116 -17 -223q-3 -59 -3 -111q0 -41 2 -78q6 -58 38 -58l3 1q34 1 73 48q38 47 56 127q4 8 10 8h3q8 -2 12 -12q7 -27 7 -58q0 -14 -1 -28
z" />
    <glyph glyph-name="Euro" unicode="&#x20ac;" horiz-adv-x="749" 
d="M587 36q-99 0 -180 34q-120 51 -198 152q-79 101 -114 231h-84l-2 143l61 1q-3 28 -3 56l1 33h-67l-1 143l87 1q30 125 105 227q75 101 197 158q109 51 256 51l39 -1v-245q-135 0 -219 -53q-85 -52 -124 -135l193 2l-4 -149h-227v-20q0 -33 4 -66l237 2l-4 -148h-190
q47 -97 132 -157q83 -59 196 -59h6v-193q-51 -8 -97 -8z" />
    <glyph glyph-name="uni2116" unicode="&#x2116;" horiz-adv-x="1821" 
d="M628 26l-309 714l-23 -658l-276 -56l-20 1245l337 -7l280 -562l-9 569l337 -7l-41 -1182zM1349 339h-15q-97 0 -172 63q-73 64 -114 169q-39 101 -39 228v9q3 131 47 237q42 105 119 169q75 63 174 63h6q168 0 264 -92q98 -94 126 -237q11 -60 11 -120q0 -82 -22 -165
q-39 -142 -139 -235q-97 -89 -246 -89zM1377 573q33 3 57 52q24 48 38 119q11 64 11 128v14q-2 71 -22 120q-21 48 -63 48q-39 0 -65 -49q-25 -49 -37 -121q-7 -50 -7 -100q0 -21 1 -43q5 -71 26 -119q22 -48 61 -49zM1690 55l-651 1l-1 209l657 7z" />
    <glyph glyph-name="trademark" unicode="&#x2122;" horiz-adv-x="1684" 
d="M360 325l-29 752h-8q-41 0 -76 -18q-65 -39 -72 -106q-1 -9 -1 -17q0 -56 43 -104q-46 -17 -88 -17h-10q-48 2 -80 38t-38 118l-1 17q0 62 28 120q31 65 106 109q64 34 145 34l18 -1q92 -3 188 -19q34 -6 74.5 -12t71.5 -10.5l31 -4.5q57 -1 86.5 8.5t50.5 24.5l30 -107
q-52 -45 -114 -63q-59 -13 -123 -11h-14l-20 -689zM1414 390q-47 0 -82 37q-38 41 -45 137l-1 24q0 36 -4 84q-3 49 -12 86q-9 38 -26 41q-29 0 -42 -49q-12 -49 -16 -116q0 -52 -4 -101v0q-7 -70 -19 -120l-179 6q5 36 8 94q2 40 2 79v40q-2 60 -12 102q-9 40 -29 42
q-27 -2 -40 -49q-14 -46 -17 -104l-8 -197l-209 -31l-26 593l257 8l-2 -50q30 24 77 24h4q54 -4 91 -32q37 -27 60 -71q21 55 59 91q36 35 93 35q90 -5 130 -53q39 -47 48 -118q8 -61 8 -123l-1 -59l1 -19q1 -20 7 -35q7 -15 24 -15q26 0 56 37t44 99q3 6 8 6h2q6 -2 9 -9
q6 -21 6 -45q0 -45 -21 -101q-32 -87 -90 -131q-48 -33 -100 -36z" />
    </font>
</defs>
</svg>
